<?xml version="1.0" encoding="UTF-8"?>
<svg width="1200pt" height="1200pt" version="1.1" viewBox="0 0 1200 1200" xmlns="http://www.w3.org/2000/svg">
 <g>
  <path d="m1200 600c0 214.36-114.36 412.44-300 519.62-185.64 107.18-414.36 107.18-600 0-185.64-107.18-300-305.26-300-519.62s114.36-412.44 300-519.62c185.64-107.18 414.36-107.18 600 0 185.64 107.18 300 305.26 300 519.62"/>
  <path d="m247.32 782.98 47.23 82.656h0.003906c2.1016 3.6797 6.0117 5.9492 10.25 5.9492h87.613l43.832 76.707c2.1016 3.6797 6.0117 5.9492 10.25 5.9492h94.465c4.2383 0 8.1523-2.2695 10.25-5.9492l43.832-76.707h87.613c4.2383 0 8.1523-2.2695 10.254-5.9492l47.23-82.656c2.0781-3.6289 2.0781-8.0859 0-11.715l-43.883-76.801 43.883-76.797c2.0781-3.6289 2.0781-8.0859 0-11.715l-47.23-82.656c-2.1016-3.6797-6.0156-5.9531-10.254-5.9531h-87.613l-43.832-76.707 0.003906 0.003906c-2.1016-3.6797-6.0156-5.9531-10.254-5.9531h-94.465c-4.2344 0-8.1484 2.2734-10.25 5.9531l-43.832 76.703h-87.613c-4.2383 0-8.1484 2.2734-10.25 5.9531l-47.23 82.656h-0.003906c-2.0742 3.6289-2.0742 8.0859 0 11.715l43.887 76.797-43.887 76.801c-2.0742 3.6289-2.0742 8.0859 0 11.715zm286.8 147.64h-80.766l-40.484-70.848 40.484-70.848h80.762l40.484 70.848zm-80.766-307.01h80.766l40.48 70.848-40.48 70.848h-80.766l-40.48-70.848zm222.46 224.35h-80.766l-40.484-70.848 40.484-70.848h80.762l40.48 70.848zm40.48-236.16-40.484 70.848h-80.762l-40.484-70.848 40.484-70.848h80.766zm-262.94-153.5h80.766l40.484 70.848-40.488 70.848h-80.762l-40.484-70.848zm-141.7 82.656h80.766l40.484 70.848-40.488 70.848h-80.766l-40.48-70.848zm0.003906 165.31h80.758l40.484 70.848-40.484 70.848h-80.766l-40.48-70.848z" fill="#ffd65b"/>
  <path d="m946.86 474.05c-6.8906-13.645-17.977-24.719-31.633-31.586 2.3125-6.2734 3.5273-12.895 3.5977-19.578-0.039062-12.082-3.7812-23.859-10.73-33.742-6.9492-9.8828-16.766-17.395-28.121-21.516 9.7578-10.73 15.184-24.703 15.234-39.207v-23.617c0-21.094-11.254-40.582-29.52-51.129-18.27-10.547-40.773-10.547-59.043 0-18.266 10.547-29.52 30.035-29.52 51.129v13.113c-19.965-20.648-49.203-29.48-77.262-23.336-28.055 6.1445-50.926 26.387-60.434 53.492-9.5078 27.102-4.293 57.195 13.777 79.523 18.07 22.324 46.418 33.691 74.91 30.039 3.7422 20.703 17.758 38.082 37.199 46.117v37.211c-0.035156 12.375 3.2227 24.535 9.4453 35.23 6.1914 10.816 15.129 19.809 25.914 26.066 10.781 6.2539 23.023 9.5508 35.492 9.5508h118.08v-106.27c0.007812-10.93-2.5195-21.707-7.3867-31.492zm-51.652-51.164c-0.011719 9.3906-3.7461 18.395-10.387 25.035s-15.645 10.379-25.039 10.387h-23.613c-9.3945-0.007813-18.398-3.7461-25.039-10.387s-10.375-15.645-10.387-25.035v-35.426h59.039c9.3945 0.011719 18.398 3.7461 25.039 10.387s10.375 15.645 10.387 25.039zm-94.465-118.08c0-12.656 6.75-24.352 17.711-30.68 10.961-6.3281 24.465-6.3281 35.426 0s17.711 18.023 17.711 30.68v23.617c-0.007813 9.3906-3.7461 18.395-10.387 25.035s-15.645 10.379-25.035 10.387h-35.426zm-141.7 70.848c0-15.656 6.2188-30.676 17.293-41.746 11.07-11.074 26.086-17.293 41.746-17.293 15.66 0 30.676 6.2188 41.746 17.293 11.074 11.07 17.293 26.09 17.293 41.746 0 15.66-6.2188 30.676-17.293 41.75-11.07 11.07-26.086 17.289-41.746 17.289-15.652-0.015625-30.66-6.2422-41.727-17.312-11.07-11.066-17.297-26.074-17.312-41.727zm92.074 75.719c10.172-4.4727 19.34-10.945 26.961-19.035 3.1797 19.57 15.973 36.234 34.055 44.359-7.4141 5.4648-16.512 8.1484-25.707 7.5781-9.1914-0.57031-17.891-4.3594-24.57-10.695-5.957-5.9961-9.7383-13.812-10.738-22.207zm81.586 38.902 8.3477-8.3477h18.727c5.6719-0.082031 11.301-0.99219 16.711-2.7031-22.953 30.676-52.184 56.109-85.738 74.602-1.1992-4.1797-1.8125-8.5078-1.8203-12.859v-32.551c16.43 0.042969 32.191-6.4883 43.773-18.141zm-29.887 83.859c45.102-25.062 82.793-61.582 109.27-105.87 4.4531 3.4414 8.2617 7.6406 11.246 12.41-7.3867 23.551-20.289 44.996-37.633 62.555-19.41 19.367-43.664 33.176-70.23 39.98-4.6875-2.3047-8.9609-5.3711-12.648-9.0742zm62.488 14.066c27.254-15.5 49.82-38.062 65.32-65.312v65.312z" fill="#ffd65b"/>
 </g>
</svg>
