<?xml version="1.0" encoding="UTF-8"?>
<svg width="1200pt" height="1200pt" version="1.1" viewBox="0 0 1200 1200" xmlns="http://www.w3.org/2000/svg">
 <g>
  <path d="m1200 600c0 214.36-114.36 412.44-300 519.62-185.64 107.18-414.36 107.18-600 0-185.64-107.18-300-305.26-300-519.62s114.36-412.44 300-519.62c185.64-107.18 414.36-107.18 600 0 185.64 107.18 300 305.26 300 519.62"/>
  <path d="m497.92 948.8h-0.058594c-8.0273-0.027344-14.512-6.5703-14.477-14.59l0.32031-78.797-85.07-49.957-88.98 49.617-0.3125 78.668c-0.035156 8.0039-6.5352 14.477-14.531 14.477h-0.058594c-8.0273-0.027344-14.512-6.5703-14.477-14.59l0.34766-87.168c0.019531-5.25 2.875-10.078 7.457-12.633l103.66-57.805c4.5-2.5273 9.9922-2.457 14.434 0.15625l99.453 58.402c4.4648 2.625 7.1953 7.4219 7.1758 12.59l-0.35547 87.156c-0.03125 8-6.5312 14.473-14.527 14.473z" fill="#ffd65b"/>
  <path d="m703.31 512.71c-2.4688 0-4.9336-0.625-7.1523-1.8867l-103.3-58.402c-4.5781-2.582-7.3945-7.4375-7.3789-12.688l0.34766-116.21c0.015626-5.25 2.8672-10.09 7.4492-12.645l103.66-57.82c4.5117-2.5273 10-2.457 14.441 0.15625l99.453 58.402c4.457 2.6133 7.1875 7.4102 7.1758 12.574l-0.35547 116.22c-0.015625 5.168-2.7734 9.9492-7.2539 12.531l-99.801 57.805c-2.25 1.3047-4.7617 1.957-7.2812 1.957zm-88.746-81.395 88.66 50.113 85.383-49.445 0.29688-99.531-85.074-49.957-88.973 49.617z" fill="#ffd65b"/>
  <path d="m499.85 512.71c-2.4688 0-4.9336-0.625-7.1523-1.8867l-103.3-58.402c-4.5781-2.582-7.3945-7.4375-7.3789-12.688l0.34766-116.21c0.015625-5.25 2.8672-10.09 7.4492-12.645l103.66-57.82c4.5117-2.5273 9.9922-2.457 14.441 0.15625l99.453 58.402c4.457 2.6133 7.1875 7.4102 7.1758 12.574l-0.35547 116.22c-0.015625 5.168-2.7734 9.9492-7.2539 12.531l-99.801 57.805c-2.25 1.3047-4.7617 1.957-7.2812 1.957zm-88.746-81.395 88.66 50.113 85.383-49.445 0.29688-99.531-85.074-49.957-88.973 49.617z" fill="#ffd65b"/>
  <path d="m703.31 861.34c-2.4688 0-4.9336-0.625-7.1523-1.8867l-103.3-58.402c-4.5781-2.582-7.3945-7.4375-7.3789-12.688l0.34766-116.21c0.015626-5.25 2.8672-10.09 7.4492-12.645l103.66-57.82c4.5117-2.5273 10-2.457 14.441 0.15625l99.453 58.402c4.457 2.6133 7.1875 7.4102 7.1758 12.574l-0.35547 116.22c-0.015625 5.168-2.7734 9.9492-7.2539 12.531l-99.801 57.805c-2.25 1.3008-4.7617 1.957-7.2812 1.957zm-88.746-81.395 88.66 50.113 85.383-49.445 0.29688-99.531-85.074-49.957-88.973 49.617z" fill="#ffd65b"/>
  <path d="m499.85 861.34c-2.4688 0-4.9336-0.625-7.1523-1.8867l-103.3-58.402c-4.5781-2.582-7.3945-7.4375-7.3789-12.688l0.34766-116.21c0.015625-5.25 2.8672-10.09 7.4492-12.645l103.66-57.82c4.5117-2.5273 9.9922-2.457 14.441 0.15625l99.453 58.402c4.457 2.6133 7.1875 7.4102 7.1758 12.574l-0.35547 116.22c-0.015625 5.168-2.7734 9.9492-7.2539 12.531l-99.801 57.805c-2.25 1.3008-4.7617 1.957-7.2812 1.957zm-88.746-81.395 88.66 50.113 85.383-49.445 0.29688-99.531-85.074-49.957-88.973 49.617z" fill="#ffd65b"/>
  <path d="m805.04 687.03c-2.4688 0-4.9336-0.625-7.1523-1.8867l-103.3-58.402c-4.5781-2.582-7.3945-7.4375-7.3789-12.688l0.34766-116.22c0.015625-5.25 2.8672-10.09 7.457-12.645l103.66-57.805c4.5-2.5273 10-2.4414 14.434 0.15625l99.453 58.402c4.457 2.6133 7.1875 7.4102 7.1758 12.574l-0.35547 116.21c-0.015625 5.168-2.7734 9.9336-7.2461 12.531l-99.801 57.82c-2.2578 1.3047-4.7695 1.957-7.2891 1.957zm-88.746-81.395 88.66 50.113 85.383-49.461 0.29687-99.516-85.074-49.957-88.973 49.602z" fill="#ffd65b"/>
  <path d="m601.58 687.03c-2.4688 0-4.9336-0.625-7.1523-1.8867l-103.3-58.402c-4.5781-2.582-7.3945-7.4375-7.3789-12.688l0.34766-116.22c0.015625-5.25 2.8672-10.09 7.457-12.645l103.66-57.805c4.5078-2.5273 9.9922-2.4414 14.434 0.15625l99.453 58.402c4.457 2.6133 7.1875 7.4102 7.1758 12.574l-0.35547 116.21c-0.015624 5.168-2.7734 9.9336-7.2461 12.531l-99.801 57.82c-2.2578 1.3047-4.7695 1.957-7.2891 1.957zm-88.746-81.395 88.66 50.113 85.383-49.461 0.29688-99.516-85.074-49.957-88.973 49.602z" fill="#ffd65b"/>
 </g>
</svg>
